<?xml version="1.0" encoding="UTF-8"?>
<svg width="320" height="320" version="1.1" viewBox="0 0 320 320" xmlns="http://www.w3.org/2000/svg">
 <g transform="matrix(-3.1902 0 0 -3.1902 319.51 292.12)" fill="#fff">
  <polygon points="29.8 17 29.7 17.5 25.9 27.8 15 26 0 0 65 0 58 8.5 65 17"/>
  <g transform="rotate(120 50 28.868)">
   <polygon points="29.8 17 29.7 17.5 25.9 27.8 15 26 0 0 65 0 58 8.5 65 17" fill="#fff"/>
  </g>
  <g transform="rotate(240 50 28.868)">
   <polygon points="29.8 17 29.7 17.5 25.9 27.8 15 26 0 0 65 0 58 8.5 65 17" fill="#fff"/>
  </g>
 </g>
</svg>
